<svg width="168" height="74" viewBox="0 0 168 74" fill="none" xmlns="http://www.w3.org/2000/svg">
<path d="M1.155 43.68C1.155 41.2533 1.68 39.095 2.73 37.205C3.78 35.2917 5.23833 33.81 7.105 32.76C8.995 31.6867 11.13 31.15 13.51 31.15C16.4267 31.15 18.9233 31.92 21 33.46C23.0767 35 24.465 37.1 25.165 39.76H18.585C18.095 38.7333 17.395 37.9517 16.485 37.415C15.5983 36.8783 14.5833 36.61 13.44 36.61C11.5967 36.61 10.1033 37.2517 8.96 38.535C7.81667 39.8183 7.245 41.5333 7.245 43.68C7.245 45.8267 7.81667 47.5417 8.96 48.825C10.1033 50.1083 11.5967 50.75 13.44 50.75C14.5833 50.75 15.5983 50.4817 16.485 49.945C17.395 49.4083 18.095 48.6267 18.585 47.6H25.165C24.465 50.26 23.0767 52.36 21 53.9C18.9233 55.4167 16.4267 56.175 13.51 56.175C11.13 56.175 8.995 55.65 7.105 54.6C5.23833 53.5267 3.78 52.045 2.73 50.155C1.68 48.265 1.155 46.1067 1.155 43.68ZM44.1252 51.66H34.9552L33.4852 56H27.2202L36.1102 31.43H43.0402L51.9302 56H45.5952L44.1252 51.66ZM42.5852 47.04L39.5402 38.045L36.5302 47.04H42.5852ZM53.6208 43.68C53.6208 41.2533 54.1458 39.095 55.1958 37.205C56.2458 35.2917 57.7042 33.81 59.5708 32.76C61.4608 31.6867 63.5958 31.15 65.9758 31.15C68.8925 31.15 71.3892 31.92 73.4658 33.46C75.5425 35 76.9308 37.1 77.6308 39.76H71.0508C70.5608 38.7333 69.8608 37.9517 68.9508 37.415C68.0642 36.8783 67.0492 36.61 65.9058 36.61C64.0625 36.61 62.5692 37.2517 61.4258 38.535C60.2825 39.8183 59.7108 41.5333 59.7108 43.68C59.7108 45.8267 60.2825 47.5417 61.4258 48.825C62.5692 50.1083 64.0625 50.75 65.9058 50.75C67.0492 50.75 68.0642 50.4817 68.9508 49.945C69.8608 49.4083 70.5608 48.6267 71.0508 47.6H77.6308C76.9308 50.26 75.5425 52.36 73.4658 53.9C71.3892 55.4167 68.8925 56.175 65.9758 56.175C63.5958 56.175 61.4608 55.65 59.5708 54.6C57.7042 53.5267 56.2458 52.045 55.1958 50.155C54.1458 48.265 53.6208 46.1067 53.6208 43.68ZM102.576 31.43V56H96.591V45.885H87.281V56H81.296V31.43H87.281V41.055H96.591V31.43H102.576ZM112.882 31.43V56H106.897V31.43H112.882ZM139.199 56H133.214L123.204 40.845V56H117.219V31.43H123.204L133.214 46.655V31.43H139.199V56ZM158.832 51.66H149.662L148.192 56H141.927L150.817 31.43H157.747L166.637 56H160.302L158.832 51.66ZM157.292 47.04L154.247 38.045L151.237 47.04H157.292Z" fill="black"/>
<path d="M45.4448 17.52H40.2048L39.3648 20H35.7848L40.8648 5.96H44.8248L49.9048 20H46.2848L45.4448 17.52ZM44.5648 14.88L42.8248 9.74L41.1048 14.88H44.5648ZM58.2509 8.72C59.5576 8.72 60.5976 9.14667 61.3709 10C62.1576 10.84 62.5509 12 62.5509 13.48V20H59.1509V13.94C59.1509 13.1933 58.9576 12.6133 58.5709 12.2C58.1843 11.7867 57.6643 11.58 57.0109 11.58C56.3576 11.58 55.8376 11.7867 55.4509 12.2C55.0643 12.6133 54.8709 13.1933 54.8709 13.94V20H51.4509V8.84H54.8709V10.32C55.2176 9.82667 55.6843 9.44 56.2709 9.16C56.8576 8.86667 57.5176 8.72 58.2509 8.72ZM75.9475 8.84V20H72.5275V18.48C72.1808 18.9733 71.7075 19.3733 71.1075 19.68C70.5208 19.9733 69.8675 20.12 69.1475 20.12C68.2942 20.12 67.5408 19.9333 66.8875 19.56C66.2342 19.1733 65.7275 18.62 65.3675 17.9C65.0075 17.18 64.8275 16.3333 64.8275 15.36V8.84H68.2275V14.9C68.2275 15.6467 68.4208 16.2267 68.8075 16.64C69.1942 17.0533 69.7142 17.26 70.3675 17.26C71.0342 17.26 71.5608 17.0533 71.9475 16.64C72.3342 16.2267 72.5275 15.6467 72.5275 14.9V8.84H75.9475ZM85.2041 8.72C86.5107 8.72 87.5507 9.14667 88.3241 10C89.1107 10.84 89.5041 12 89.5041 13.48V20H86.1041V13.94C86.1041 13.1933 85.9107 12.6133 85.5241 12.2C85.1374 11.7867 84.6174 11.58 83.9641 11.58C83.3107 11.58 82.7907 11.7867 82.4041 12.2C82.0174 12.6133 81.8241 13.1933 81.8241 13.94V20H78.4041V8.84H81.8241V10.32C82.1707 9.82667 82.6374 9.44 83.2241 9.16C83.8107 8.86667 84.4707 8.72 85.2041 8.72ZM91.2006 14.42C91.2006 13.26 91.434 12.2467 91.9006 11.38C92.3806 10.5133 93.0406 9.84667 93.8806 9.38C94.734 8.91333 95.7073 8.68 96.8006 8.68C98.2006 8.68 99.3673 9.04667 100.301 9.78C101.247 10.5133 101.867 11.5467 102.161 12.88H98.5206C98.214 12.0267 97.6206 11.6 96.7406 11.6C96.114 11.6 95.614 11.8467 95.2406 12.34C94.8673 12.82 94.6806 13.5133 94.6806 14.42C94.6806 15.3267 94.8673 16.0267 95.2406 16.52C95.614 17 96.114 17.24 96.7406 17.24C97.6206 17.24 98.214 16.8133 98.5206 15.96H102.161C101.867 17.2667 101.247 18.2933 100.301 19.04C99.354 19.7867 98.1873 20.16 96.8006 20.16C95.7073 20.16 94.734 19.9267 93.8806 19.46C93.0406 18.9933 92.3806 18.3267 91.9006 17.46C91.434 16.5933 91.2006 15.58 91.2006 14.42ZM105.71 7.68C105.11 7.68 104.617 7.50667 104.23 7.16C103.857 6.8 103.67 6.36 103.67 5.84C103.67 5.30667 103.857 4.86667 104.23 4.52C104.617 4.16 105.11 3.98 105.71 3.98C106.297 3.98 106.777 4.16 107.15 4.52C107.537 4.86667 107.73 5.30667 107.73 5.84C107.73 6.36 107.537 6.8 107.15 7.16C106.777 7.50667 106.297 7.68 105.71 7.68ZM107.41 8.84V20H103.99V8.84H107.41ZM114.968 20.16C113.875 20.16 112.888 19.9267 112.008 19.46C111.142 18.9933 110.455 18.3267 109.948 17.46C109.455 16.5933 109.208 15.58 109.208 14.42C109.208 13.2733 109.462 12.2667 109.968 11.4C110.475 10.52 111.168 9.84667 112.048 9.38C112.928 8.91333 113.915 8.68 115.008 8.68C116.102 8.68 117.088 8.91333 117.968 9.38C118.848 9.84667 119.542 10.52 120.048 11.4C120.555 12.2667 120.808 13.2733 120.808 14.42C120.808 15.5667 120.548 16.58 120.028 17.46C119.522 18.3267 118.822 18.9933 117.928 19.46C117.048 19.9267 116.062 20.16 114.968 20.16ZM114.968 17.2C115.622 17.2 116.175 16.96 116.628 16.48C117.095 16 117.328 15.3133 117.328 14.42C117.328 13.5267 117.102 12.84 116.648 12.36C116.208 11.88 115.662 11.64 115.008 11.64C114.342 11.64 113.788 11.88 113.348 12.36C112.908 12.8267 112.688 13.5133 112.688 14.42C112.688 15.3133 112.902 16 113.328 16.48C113.768 16.96 114.315 17.2 114.968 17.2ZM127.163 20.16C126.189 20.16 125.323 19.9933 124.563 19.66C123.803 19.3267 123.203 18.8733 122.763 18.3C122.323 17.7133 122.076 17.06 122.023 16.34H125.403C125.443 16.7267 125.623 17.04 125.943 17.28C126.263 17.52 126.656 17.64 127.123 17.64C127.549 17.64 127.876 17.56 128.103 17.4C128.343 17.2267 128.463 17.0067 128.463 16.74C128.463 16.42 128.296 16.1867 127.963 16.04C127.629 15.88 127.089 15.7067 126.343 15.52C125.543 15.3333 124.876 15.14 124.343 14.94C123.809 14.7267 123.349 14.4 122.963 13.96C122.576 13.5067 122.383 12.9 122.383 12.14C122.383 11.5 122.556 10.92 122.903 10.4C123.263 9.86667 123.783 9.44667 124.463 9.14C125.156 8.83333 125.976 8.68 126.923 8.68C128.323 8.68 129.423 9.02667 130.223 9.72C131.036 10.4133 131.503 11.3333 131.623 12.48H128.463C128.409 12.0933 128.236 11.7867 127.943 11.56C127.663 11.3333 127.289 11.22 126.823 11.22C126.423 11.22 126.116 11.3 125.903 11.46C125.689 11.6067 125.583 11.8133 125.583 12.08C125.583 12.4 125.749 12.64 126.083 12.8C126.429 12.96 126.963 13.12 127.683 13.28C128.509 13.4933 129.183 13.7067 129.703 13.92C130.223 14.12 130.676 14.4533 131.063 14.92C131.463 15.3733 131.669 15.9867 131.683 16.76C131.683 17.4133 131.496 18 131.123 18.52C130.763 19.0267 130.236 19.4267 129.543 19.72C128.863 20.0133 128.069 20.16 127.163 20.16Z" fill="#F28E13"/>
</svg>
